<?xml version="1.0" encoding="utf-8"?>
<!-- Generator: Adobe Illustrator 25.0.0, SVG Export Plug-In . SVG Version: 6.00 Build 0)  -->
<svg version="1.1" id="Layer_1" xmlns="http://www.w3.org/2000/svg" xmlns:xlink="http://www.w3.org/1999/xlink" x="0px" y="0px"
	 viewBox="0 0 914.9 245.3" style="enable-background:new 0 0 914.9 245.3;" xml:space="preserve">
<style type="text/css">
	.st0{fill:#7A6E5F;}
	.st1{fill:#FECA78;}
</style>
<path class="st0" d="M359.6,225.5c0-71.6,0-143,0-214.4c0.1-0.1,0.2-0.2,0.2-0.2c0.1,0,0.1-0.1,0.2-0.1c0.3-0.1,0.6-0.2,0.9-0.2
	c176.1,0,352.1,0,528.2,0c0.3,0,0.6,0.1,0.8,0.1c0.1,0.1,0.2,0.2,0.2,0.2c0,0.1,0.1,0.1,0.1,0.2c0.1,0.5,0.2,1.1,0.2,1.6
	c0,70.7,0,141.4-0.1,212.1c0,0.2-0.1,0.4-0.2,0.6C888.5,225.9,362.3,226,359.6,225.5z M625.1,214.1c0-0.1,0-0.3,0-0.4
	c4,0,8,0.1,12,0c9.3-0.3,18.6-0.4,27.8-1c12.2-0.8,24.3-1.7,36.5-2.9c17.4-1.8,34.7-4.6,51.8-8.2c22.3-4.7,44.1-10.9,65.1-19.9
	c13.6-5.9,26.7-12.8,38.3-22.2c7.4-6,13.9-12.8,18.5-21.2c3.1-5.7,5.1-11.8,5.3-18.4c0.3-8.8-2.3-16.8-6.9-24.2
	c-4.8-7.6-11.1-13.9-18.1-19.4c-10-7.9-21.1-14-32.6-19.3c-17-7.8-34.8-13.5-52.9-18.1c-17.7-4.5-35.7-8-53.8-10.2
	c-12.1-1.5-24.2-2.9-36.4-3.9c-11.3-0.9-22.7-1.5-34-1.8c-17.7-0.5-35.3-0.4-53,0.4c-3.2,0.1-6.4,0.3-9.7,0.5
	c-7.1,0.5-14.2,1-21.3,1.7c-9,0.9-18,1.8-27,3c-13.8,1.8-27.5,4.2-41,7.2c-22,4.9-43.6,11.1-64.2,20.2c-12.7,5.6-24.9,12.3-35.8,21
	c-7.7,6.2-14.5,13.3-19.2,22.1c-3.4,6.4-5.2,13.1-5,20.3c0.2,6.5,2,12.6,5,18.3c4.4,8.1,10.4,14.8,17.4,20.6
	c10.5,8.7,22.2,15.4,34.5,21c17,7.8,34.7,13.6,52.8,18.2c21,5.3,42.3,9,63.8,11.6c15.2,1.8,30.5,3.2,45.9,3.9
	C601,213.6,613.1,213.8,625.1,214.1z"/>
<path class="st1" d="M625.1,214.1c-12-0.3-24.1-0.5-36.1-1.1c-15.3-0.7-30.6-2-45.9-3.9c-21.5-2.6-42.8-6.3-63.8-11.6
	c-18.1-4.6-35.8-10.3-52.8-18.2c-12.3-5.7-24-12.3-34.5-21c-7-5.9-13.1-12.5-17.4-20.6c-3.1-5.7-4.9-11.8-5-18.3
	c-0.2-7.2,1.6-14,5-20.3c4.7-8.8,11.5-15.9,19.2-22.1c10.9-8.8,23.1-15.4,35.8-21c20.7-9.1,42.2-15.4,64.2-20.2
	c13.6-3,27.3-5.4,41-7.2c9-1.2,18-2.1,27-3c7.1-0.7,14.2-1.2,21.3-1.7c3.2-0.2,6.4-0.4,9.7-0.5c17.6-0.7,35.3-0.9,53-0.4
	c11.3,0.3,22.7,0.9,34,1.8c12.2,1,24.3,2.4,36.4,3.9c18.1,2.3,36.1,5.7,53.8,10.2c18.1,4.6,35.9,10.3,52.9,18.1
	c11.6,5.3,22.6,11.4,32.6,19.3c7,5.5,13.3,11.8,18.1,19.4c4.6,7.4,7.2,15.4,6.9,24.2c-0.2,6.6-2.2,12.7-5.3,18.4
	c-4.6,8.4-11.1,15.2-18.5,21.2c-11.6,9.4-24.7,16.3-38.3,22.2c-20.9,9-42.8,15.2-65.1,19.9c-17.1,3.7-34.4,6.4-51.8,8.2
	c-12.1,1.3-24.3,2.2-36.5,2.9c-9.3,0.6-18.6,0.7-27.8,1c-4,0.1-8,0-12,0C625.1,213.8,625.1,214,625.1,214.1z M491.8,155.4
	c0.4,0.1,0.8,0.2,1.3,0.2c14.4,0,28.9,0,43.3,0c0.6,0,1.3-0.2,1.9-0.3c-0.2-1.9-0.6-3.6-0.6-5.3c-0.1-8.7,0-17.3,0-26
	c0-0.6,0.2-1.1,0.3-2.1c0.6,0.7,1,1.1,1.3,1.5c4.8,7.2,9.6,14.4,14.3,21.7c1.7,2.6,2.9,5.5,4.2,8.4c0.8,1.8,0.7,1.9,2.8,1.9
	c17.4,0,34.8,0,52.3,0c0.6,0,1.1-0.1,1.8-0.2c-0.2-0.4-0.2-0.6-0.3-0.8c-2.8-3.9-5.7-7.8-8.4-11.8c-6.9-10.4-13.8-20.9-20.7-31.3
	c-1.4-2.1-1.3-2.1,0.2-4c5.5-6.7,11-13.4,16.5-20.1c2.7-3.3,5.4-6.5,8.7-9.1c0.4-0.3,0.7-0.7,1.3-1.3c-1.1,0-1.8,0-2.5,0
	c-14.7,0-29.3,0-44,0c-0.4,0-0.8,0-1.2,0c-1,0-1.4,0.4-1.9,1.3c-1.4,2.6-2.7,5.4-4.5,7.8c-6.1,8.3-12.4,16.4-18.7,24.5
	c-0.3,0.4-0.7,0.6-1.5,1.4c0-6.2-0.1-11.8,0-17.5c0.1-5.7-0.4-11.4,0.7-17.3c-15.8,0-31.2,0-46.9,0c1.1,4.9,0.6,9.8,0.6,14.6
	c0.1,10.6,0.1,21.2,0,31.8C492.1,134,492.6,144.6,491.8,155.4z M751.8,77.1c-0.6,2.3-1,4.2-1.7,6.1c-2.9,8-5.8,16-8.7,24
	c-2.9,8.1-5.8,16.2-8.8,24.2c-3,7.9-5.3,16.2-9.3,24c0.8,0.1,1.4,0.2,2.1,0.2c11.3,0,22.6,0,33.9,0c0.8,0,1.6-0.2,2.3-0.2
	c0.4-1.8,0.8-3.4,1.2-4.9c0.5-1.6,1.1-3.2,1.7-4.8c0.9-2.5,0.9-2.5,3.7-2.5c7.8,0,15.7,0,23.5,0c0.5,0,0.9,0,1.4,0
	c0.9,0,1.5,0.4,1.8,1.2c1.1,2.9,2.3,5.9,3.2,8.9c0.7,2.2,0.5,2.3,2.9,2.3c14.8,0,29.6,0,44.5,0c0.6,0,1.3-0.1,2.1-0.2
	c-1-1.9-1.9-3.6-2.6-5.4c-5.2-13.5-10.4-27.1-15.6-40.6c-4-10.7-8.5-21.2-12.2-32.3C795.5,77.1,773.7,77.1,751.8,77.1z M624.5,155.4
	c1,0.1,1.6,0.2,2.3,0.2c28.9,0,57.9,0,86.8,0c0.8,0,1.6-0.2,2.6-0.2c0-7.1,0-13.9,0-20.7c-3,0.2-5.9,0.5-8.8,0.6
	c-11,0.1-22,0-32.9,0c-0.7,0-1.4,0-2.1,0c-1.5-0.1-1.7-0.3-1.7-1.9c0-2.4,0-4.8,0-7.1c0-0.4,0.2-0.9,0.4-1.5c1,0,2,0,3,0
	c10.3,0,20.6,0,30.9,0c1,0,1.9-0.1,2.8-0.2c0.5-3.1,0.4-14.4-0.2-16.3c-0.9,0-1.9,0-2.8,0c-10.3,0-20.6,0-30.9,0
	c-1,0-1.9-0.2-2.8-0.2c-0.1-0.5-0.3-0.8-0.3-1.1c0-2.3-0.1-4.6,0-6.9c0-2.2,0.2-2.4,2.3-2.4c7.1,0,14.3-0.1,21.4,0
	c7.2,0.1,14.4-0.5,21.6,0.5c0.5-2,0.5-18.9-0.1-21c-1,0-2-0.1-3.1-0.1c-28.3,0-56.7,0-85,0c-0.6,0-1.2,0-1.8,0
	c-0.5,0.1-1,0.2-1.6,0.4c1.2,4,0.8,7.9,0.9,11.8c0,16.1,0.1,32.2,0,48.4C625.1,143.3,625.7,149.2,624.5,155.4z M467.8,77.1
	c-0.5-0.1-0.7-0.3-0.9-0.3c-16.2,0-32.4,0-48.6,0c-0.4,0-0.8,0.1-1.1,0.2c-0.1,0-0.1,0.1-0.2,0.1c-0.1,0.1-0.1,0.1-0.2,0.3
	c1.1,4,0.6,8.2,0.6,12.4c0.1,6.7,0,13.5,0,20.3c0,7.5,0.1,15,0,22.6c-0.1,7.5,0.5,15-0.5,22.5c2.1,0.6,48.9,0.5,50.8-0.1
	c-1.1-4.5-0.6-9.1-0.6-13.7c-0.1-14.7-0.1-29.3,0-44C467.2,90.7,466.5,84,467.8,77.1z M828.7,83.1c-0.1,5.8,4.4,10.5,10.1,10.5
	c5.6,0.1,10.2-4.4,10.3-10.2c0.1-6-4.1-10.5-9.9-10.7C833.1,72.6,828.8,76.8,828.7,83.1z"/>
<path class="st1" d="M17.9,225.7c0-71.6,0-143,0-214.4c0.1-0.1,0.1-0.2,0.2-0.2c0,0,0.1-0.1,0.1-0.1c0.2-0.1,0.4-0.2,0.6-0.2
	c113.3,0,226.7,0,340,0c0.2,0,0.4,0.1,0.5,0.1c0.1,0.1,0.1,0.2,0.2,0.2c0,0.1,0.1,0.1,0.1,0.2c0,0.5,0.1,1.1,0.1,1.6
	c0,70.7,0,141.4,0,212.1c0,0.2-0.1,0.4-0.1,0.6C358.4,226.1,19.6,226.2,17.9,225.7z M188.8,214.3c0-0.1,0-0.3,0-0.4
	c2.6,0,5.1,0.1,7.7,0c6-0.3,12-0.4,17.9-1c7.8-0.8,15.7-1.7,23.5-2.9c11.2-1.8,22.3-4.6,33.4-8.2c14.3-4.7,28.4-10.9,41.9-19.9
	c8.8-5.9,17.2-12.8,24.7-22.2c4.8-6,8.9-12.8,11.9-21.2c2-5.7,3.3-11.8,3.4-18.4c0.2-8.8-1.5-16.8-4.4-24.2
	c-3.1-7.6-7.1-13.9-11.7-19.4c-6.4-7.9-13.6-14-21-19.3c-11-7.8-22.4-13.5-34-18.1c-11.4-4.5-22.9-8-34.6-10.2
	c-7.8-1.5-15.6-2.9-23.4-3.9c-7.3-0.9-14.6-1.5-21.9-1.8c-11.4-0.5-22.7-0.4-34.1,0.4c-2.1,0.1-4.1,0.3-6.2,0.5
	c-4.6,0.5-9.2,1-13.7,1.7c-5.8,0.9-11.6,1.8-17.4,3c-8.9,1.8-17.7,4.2-26.4,7.2C90.1,40.7,76.2,47,62.9,56.1
	c-8.2,5.6-16.1,12.3-23.1,21c-5,6.2-9.3,13.3-12.3,22.1c-2.2,6.4-3.3,13.1-3.2,20.3c0.1,6.5,1.3,12.6,3.2,18.3
	c2.8,8.1,6.7,14.8,11.2,20.6c6.7,8.7,14.3,15.4,22.2,21c10.9,7.8,22.4,13.6,34,18.2c13.5,5.3,27.2,9,41.1,11.6
	c9.8,1.8,19.7,3.2,29.5,3.9C173.3,213.8,181,213.9,188.8,214.3z"/>
<path class="st0" d="M188.8,214.3c-7.8-0.3-15.5-0.5-23.3-1.1c-9.9-0.7-19.7-2-29.5-3.9c-13.8-2.6-27.6-6.3-41.1-11.6
	c-11.7-4.6-23.1-10.3-34-18.2c-7.9-5.7-15.5-12.3-22.2-21c-4.5-5.9-8.4-12.5-11.2-20.6c-2-5.7-3.1-11.8-3.2-18.3
	c-0.1-7.2,1-14,3.2-20.3c3-8.8,7.4-15.9,12.3-22.1c7-8.8,14.9-15.4,23.1-21c13.3-9.1,27.2-15.4,41.3-20.2c8.7-3,17.5-5.4,26.4-7.2
	c5.8-1.2,11.6-2.1,17.4-3c4.6-0.7,9.2-1.2,13.7-1.7c2.1-0.2,4.1-0.4,6.2-0.5c11.4-0.7,22.7-0.9,34.1-0.4c7.3,0.3,14.6,0.9,21.9,1.8
	c7.8,1,15.6,2.4,23.4,3.9c11.7,2.3,23.2,5.7,34.6,10.2c11.7,4.6,23.1,10.3,34,18.1c7.4,5.3,14.6,11.4,21,19.3
	c4.5,5.5,8.6,11.8,11.7,19.4c3,7.4,4.6,15.4,4.4,24.2c-0.2,6.6-1.4,12.7-3.4,18.4c-3,8.4-7.2,15.2-11.9,21.2
	c-7.5,9.4-15.9,16.3-24.7,22.2c-13.5,9-27.6,15.2-41.9,19.9c-11,3.7-22.1,6.4-33.4,8.2c-7.8,1.3-15.6,2.2-23.5,2.9
	c-6,0.6-11.9,0.7-17.9,1c-2.6,0.1-5.1,0-7.7,0C188.8,214,188.8,214.1,188.8,214.3z"/>
<path class="st0" d="M491.8,155.4c0.8-10.8,0.3-21.4,0.4-32c0.1-10.6,0.1-21.2,0-31.8c0-4.8,0.5-9.6-0.6-14.6c15.6,0,31.1,0,46.9,0
	c-1.1,5.8-0.6,11.6-0.7,17.3c-0.1,5.6,0,11.3,0,17.5c0.8-0.7,1.2-1,1.5-1.4c6.3-8.2,12.6-16.3,18.7-24.5c1.8-2.4,3.1-5.1,4.5-7.8
	c0.5-0.9,0.9-1.3,1.9-1.3c0.4,0,0.8,0,1.2,0c14.7,0,29.3,0,44,0c0.7,0,1.4,0,2.5,0c-0.6,0.6-1,1-1.3,1.3c-3.3,2.7-6.1,5.9-8.7,9.1
	c-5.5,6.7-11,13.4-16.5,20.1c-1.5,1.9-1.5,1.9-0.2,4c6.9,10.5,13.7,20.9,20.7,31.3c2.7,4,5.6,7.9,8.4,11.8c0.1,0.2,0.2,0.4,0.3,0.8
	c-0.7,0.1-1.2,0.2-1.8,0.2c-17.4,0-34.8,0-52.3,0c-2.1,0-2-0.1-2.8-1.9c-1.3-2.9-2.5-5.8-4.2-8.4c-4.6-7.3-9.5-14.5-14.3-21.7
	c-0.3-0.4-0.7-0.8-1.3-1.5c-0.2,0.9-0.3,1.5-0.3,2.1c0,8.7,0,17.3,0,26c0,1.7,0.4,3.3,0.6,5.3c-0.7,0.1-1.3,0.3-1.9,0.3
	c-14.4,0-28.9,0-43.3,0C492.6,155.5,492.2,155.4,491.8,155.4z"/>
<path class="st0" d="M751.8,77.1c21.8,0,43.7,0,65.3,0c3.7,11,8.1,21.6,12.2,32.3c5.1,13.6,10.3,27.1,15.6,40.6
	c0.7,1.8,1.7,3.4,2.6,5.4c-0.8,0.1-1.5,0.2-2.1,0.2c-14.8,0-29.6,0-44.5,0c-2.4,0-2.2-0.1-2.9-2.3c-0.9-3-2.1-5.9-3.2-8.9
	c-0.3-0.8-0.9-1.2-1.8-1.2c-0.5,0-0.9,0-1.4,0c-7.8,0-15.7,0-23.5,0c-2.7,0-2.7,0-3.7,2.5c-0.6,1.6-1.2,3.2-1.7,4.8
	c-0.5,1.5-0.8,3.1-1.2,4.9c-0.7,0.1-1.5,0.2-2.3,0.2c-11.3,0-22.6,0-33.9,0c-0.7,0-1.3-0.1-2.1-0.2c4-7.8,6.3-16,9.3-24
	c3-8,5.9-16.2,8.8-24.2c2.9-8,5.8-16,8.7-24C750.8,81.3,751.2,79.3,751.8,77.1z M788,126.6c-2.9-7.8-5.7-15-8.5-22.6
	c-2.7,7.7-5.3,14.9-8,22.5C777.1,126.7,782.3,126.6,788,126.6z"/>
<path class="st0" d="M624.5,155.4c1.2-6.1,0.7-12.1,0.7-17.9c0.1-16.1,0-32.2,0-48.4c0-3.9,0.3-7.8-0.9-11.8
	c0.6-0.2,1.1-0.3,1.6-0.4c0.6-0.1,1.2,0,1.8,0c28.3,0,56.7,0,85,0c1.1,0,2.1,0.1,3.1,0.1c0.6,2.1,0.6,18.9,0.1,21
	c-7.2-1.1-14.4-0.4-21.6-0.5c-7.1-0.1-14.3,0-21.4,0c-2.2,0-2.3,0.2-2.3,2.4c0,2.3,0,4.6,0,6.9c0,0.3,0.1,0.6,0.3,1.1
	c0.9,0.1,1.9,0.2,2.8,0.2c10.3,0,20.6,0,30.9,0c1,0,2,0,2.8,0c0.6,1.9,0.8,13.2,0.2,16.3c-0.9,0.1-1.9,0.2-2.8,0.2
	c-10.3,0-20.6,0-30.9,0c-1,0-2,0-3,0c-0.2,0.7-0.4,1.1-0.4,1.5c0,2.4-0.1,4.8,0,7.1c0,1.5,0.3,1.7,1.7,1.9c0.7,0.1,1.4,0,2.1,0
	c11,0,22,0,32.9,0c2.9,0,5.8-0.4,8.8-0.6c0,6.8,0,13.7,0,20.7c-0.9,0.1-1.8,0.2-2.6,0.2c-28.9,0-57.9,0-86.8,0
	C626.1,155.5,625.4,155.4,624.5,155.4z"/>
<path class="st0" d="M467.8,77.1c-1.2,6.8-0.6,13.6-0.6,20.3c-0.1,14.7-0.1,29.3,0,44c0,4.6-0.5,9.2,0.6,13.7
	c-1.9,0.6-48.7,0.6-50.8,0.1c0.9-7.5,0.4-15,0.5-22.5c0.1-7.5,0-15,0-22.6c0-6.8,0-13.5,0-20.3c0-4.2,0.4-8.4-0.6-12.4
	c0.1-0.2,0.2-0.3,0.2-0.3c0.1-0.1,0.1-0.1,0.2-0.1c0.4-0.1,0.8-0.2,1.1-0.2c16.2,0,32.4,0,48.6,0C467.1,76.9,467.3,77,467.8,77.1z"
	/>
<path class="st0" d="M828.7,83.1c0.1-6.2,4.4-10.4,10.5-10.3c5.9,0.1,10.1,4.6,9.9,10.7c-0.1,5.7-4.7,10.2-10.3,10.2
	C833.1,93.6,828.6,88.9,828.7,83.1z M847.3,83.1c0-4.9-3.7-8.6-8.6-8.6c-4.7,0-8.2,3.6-8.2,8.4c0,4.9,3.5,8.6,8.3,8.6
	C843.6,91.6,847.3,88,847.3,83.1z"/>
<path class="st1" d="M788,126.6c-5.8,0-11,0.1-16.6-0.1c2.7-7.6,5.3-14.9,8-22.5C782.4,111.6,785.1,118.8,788,126.6z"/>
<path class="st1" d="M847.3,83.1c0,4.8-3.7,8.5-8.5,8.5c-4.8,0-8.3-3.7-8.3-8.6c0-4.8,3.5-8.4,8.2-8.4
	C843.6,74.5,847.3,78.2,847.3,83.1z M835.8,89.1c1.1-0.7,0.8-1.6,0.9-2.4c0.1-0.8,0.1-1.6,1.1-1.8c1-0.1,1.8,0,2.4,1
	c0.4,0.8,0.9,1.6,1.4,2.4c0.4,0.6,0.9,1,1.9,0.4c-0.6-1.3-1.3-2.7-1.9-4.1c0.4-0.5,0.7-0.9,1-1.3c0.9-1.3,1.3-2.6,0.6-4.1
	c-0.7-1.5-2-2.3-3.7-2.4c-0.8,0-1.7,0-2.5,0c-1.1,0-1.7,0.5-1.7,1.6c0,3.1,0,6.1,0,9.2C835.2,88.1,835.6,88.6,835.8,89.1z"/>
<path class="st0" d="M835.8,89.1c-0.2-0.5-0.6-1-0.6-1.4c-0.1-3.1,0-6.1,0-9.2c0-1.2,0.6-1.7,1.7-1.6c0.8,0,1.7,0,2.5,0
	c1.7,0.1,2.9,0.8,3.7,2.4c0.7,1.5,0.3,2.8-0.6,4.1c-0.3,0.4-0.7,0.8-1,1.3c0.7,1.4,1.3,2.8,1.9,4.1c-1,0.6-1.5,0.2-1.9-0.4
	c-0.5-0.8-0.9-1.6-1.4-2.4c-0.5-1-1.4-1.1-2.4-1c-1,0.2-1,1-1.1,1.8C836.6,87.5,836.9,88.4,835.8,89.1z M837,82.8
	c2.3,0.6,3.7,0.2,4.4-1c0.5-0.9,0.3-1.8-0.4-2.5c-0.7-0.8-3-1.2-3.6-0.5C836.2,80,836.6,81.5,837,82.8z"/>
<path class="st1" d="M837,82.8c-0.4-1.4-0.8-2.8,0.3-4c0.6-0.7,3-0.3,3.6,0.5c0.7,0.7,0.9,1.6,0.4,2.5
	C840.7,83.1,839.4,83.4,837,82.8z"/>
<g>
	<path class="st1" d="M87.3,159.1V79.2h11.3l25.6,40.4c5.9,9.4,10.6,17.8,14.4,26l0.2-0.1c-0.9-10.7-1.2-20.4-1.2-32.9V79.2h9.7
		v79.9h-10.4l-25.4-40.6c-5.6-8.9-10.9-18-14.9-26.7L96.2,92c0.6,10.1,0.8,19.7,0.8,33v34.2H87.3z"/>
	<path class="st1" d="M233.7,118.3c0,27.5-16.7,42.1-37.1,42.1c-21.1,0-35.9-16.4-35.9-40.6c0-25.4,15.8-42,37.1-42
		C219.6,77.9,233.7,94.6,233.7,118.3z M171.6,119.7c0,17.1,9.3,32.4,25.5,32.4c16.4,0,25.6-15.1,25.6-33.2
		c0-15.9-8.3-32.5-25.5-32.5C180.2,86.3,171.6,102.1,171.6,119.7z"/>
	<path class="st1" d="M259.3,88H235v-8.8h59.2V88h-24.4v71.2h-10.4V88z"/>
</g>
<image style="overflow:visible;" width="1225" height="325" xlink:href="../Skærmbillede 2020-11-20 122256.jpg"  transform="matrix(0.4286 0 0 0.4286 171.6369 347.8696)">
</image>
</svg>
